<?xml version="1.0" encoding="iso-8859-1"?>
<!-- Generator: Adobe Illustrator 16.0.0, SVG Export Plug-In . SVG Version: 6.00 Build 0)  -->
<!DOCTYPE svg PUBLIC "-//W3C//DTD SVG 1.1//EN" "http://www.w3.org/Graphics/SVG/1.1/DTD/svg11.dtd">
<svg version="1.1" id="Capa_1" xmlns="http://www.w3.org/2000/svg" xmlns:xlink="http://www.w3.org/1999/xlink" x="0px" y="0px"
	 width="455.138px" height="455.139px" viewBox="0 0 455.138 455.139" style="enable-background:new 0 0 455.138 455.139;"
	 xml:space="preserve">
<g>
	<path d="M0,141.653v171.832h455.138V141.653H0z M432.721,291.071H22.414V164.067h410.312v127.004H432.721z M108.154,230.776
		l-24.593,4.541v-15.816l24.284,4.856l0.153-0.312l-16.602-19.734l13.94-7.992l8.763,23.962h0.32l8.93-23.962l13.778,7.828
		l-16.921,19.898l0.163,0.466l24.896-5.016v15.816l-25.066-4.376l-0.149,0.472l17.072,19.26l-13.939,8.143l-8.934-24.279
		l-0.306,0.158l-9.083,24.121l-13.471-8.143l16.754-19.578v-0.312H108.154z M179.249,230.776l-24.593,4.541v-15.816l24.284,4.856
		l0.154-0.312l-16.603-19.734l13.94-7.992l8.764,23.962h0.32l8.93-23.962l13.779,7.828l-16.921,19.898l0.163,0.466l24.896-5.016
		v15.816l-25.065-4.376l-0.15,0.472l17.073,19.26l-13.94,8.143l-8.934-24.279l-0.306,0.158l-9.083,24.121l-13.471-8.143
		l16.755-19.578v-0.312H179.249z M250.34,230.776l-24.595,4.541v-15.816l24.281,4.856l0.154-0.312l-16.601-19.734l13.939-7.992
		l8.766,23.962h0.317l8.931-23.962l13.778,7.828l-16.919,19.898l0.166,0.466l24.892-5.016v15.816l-25.068-4.376l-0.148,0.472
		l17.073,19.26l-13.938,8.143l-8.936-24.279l-0.29,0.158l-9.082,24.126l-13.471-8.143l16.754-19.578v-0.317H250.34z
		 M321.438,230.776l-24.599,4.541v-15.816l24.285,4.856l0.154-0.312l-16.604-19.734l13.938-7.992l8.766,23.962h0.317l8.931-23.962
		l13.778,7.828l-16.92,19.898l0.167,0.466l24.896-5.016v15.816l-25.067-4.376l-0.146,0.472l17.07,19.26l-13.942,8.143l-8.931-24.279
		l-0.305,0.158l-9.086,24.121l-13.472-8.143l16.755-19.578v-0.312H321.438z"/>
</g>
<g>
</g>
<g>
</g>
<g>
</g>
<g>
</g>
<g>
</g>
<g>
</g>
<g>
</g>
<g>
</g>
<g>
</g>
<g>
</g>
<g>
</g>
<g>
</g>
<g>
</g>
<g>
</g>
<g>
</g>
</svg>
